<?xml version="1.0" standalone="no"?><!DOCTYPE svg PUBLIC "-//W3C//DTD SVG 1.1//EN" "http://www.w3.org/Graphics/SVG/1.1/DTD/svg11.dtd"><svg t="1590514374017" class="icon" viewBox="0 0 1024 1024" version="1.1" xmlns="http://www.w3.org/2000/svg" p-id="1717" xmlns:xlink="http://www.w3.org/1999/xlink" width="200" height="200"><defs><style type="text/css"></style></defs><path d="M839.68 759.808H184.32c-22.528 0-40.96-18.432-40.96-40.96V184.32c0-22.528 18.432-40.96 40.96-40.96h655.36c22.528 0 40.96 18.432 40.96 40.96v534.528c0 22.528-18.432 40.96-40.96 40.96z" fill="#004FFF" p-id="1718"></path><path d="M622.592 852.992H401.408l17.408-93.184h186.368z" fill="#FBB03B" p-id="1719"></path><path d="M622.592 852.992H401.408l-36.864 16.384h294.912zM364.544 869.376h295.936V880.64H364.544z" fill="#004FFF" p-id="1720"></path><path d="M171.008 172.032h683.008v424.96H171.008z" fill="#E9F3FB" p-id="1721"></path><path d="M491.52 670.72a20.48 20.48 0 1 0 40.96 0 20.48 20.48 0 1 0-40.96 0Z" fill="#E9F3FB" p-id="1722"></path><path d="M197.632 196.608h628.736v375.808H197.632z" fill="#FBB03B" p-id="1723"></path><path d="M300.032 362.496V196.608h-102.4v375.808h628.736v-81.92H428.032c-70.656 0-128-57.344-128-128z" fill="#F79839" p-id="1724"></path></svg>